<svg width="249" height="253" fill="none" xmlns="http://www.w3.org/2000/svg"><path d="M103.5 156.44c-.36.6-.48 1.14-.36 1.62v.36c-.48 1.08-.6 2.1-.36 3.06 0 .36-.06.54-.18.54h-.18v-.18l-.54-1.44c-.24-.72-.54-1.26-.9-1.62-.24-.24-.48-.24-.72 0s-.36.72-.36 1.44v.72c.12.36.18.72.18 1.08 0-.12-.06-.18-.18-.18v-.18c-.12-.24-.24-.36-.36-.36s-.18.12-.18.36c-.48.48-.72.9-.72 1.26-.36-.24-.66-.42-.9-.54a2.82 2.82 0 00-.72-.54c-.72 1.32-1.02 2.64-.9 3.96 0 .84-.42 1.26-1.26 1.26-.36 0-.72.06-1.08.18h-1.26v.18l-.18.18c-.36.48-.72.54-1.08.18-.12-.24-.3-.24-.54 0-.24.12-.36.3-.36.54 0 1.2-.24 1.98-.72 2.34l-.18.36V173c0 .48.06 1.02.18 1.62 0 .12-.12.3-.36.54h-.18v.18c-.48.84-.96 1.02-1.44.54-.48-.12-.96-.54-1.44-1.26l-.36-.72c-.12-.24-.3-.42-.54-.54.36-.6.36-1.08 0-1.44-.12-.12-.18-.24-.18-.36s-.06-.24-.18-.36c-.12-.6-.48-1.2-1.08-1.8-.24-.36-.36-.9-.36-1.62.12-.48.06-1.08-.18-1.8-.24-.12-.36-.48-.36-1.08.24-.48.24-1.02 0-1.62 0-.96-.36-1.8-1.08-2.52-.72-.72-1.38-1.44-1.98-2.16-.6-.84-1.08-1.8-1.44-2.88-.12-.6-.84-1.74-2.16-3.42-1.2-1.8-2.46-3.6-3.78-5.4-1.2-1.8-1.92-3-2.16-3.6-.48-.84-.9-1.74-1.26-2.7-.36-.96-.72-1.86-1.08-2.7-.24-.96-.6-1.8-1.08-2.52l-1.44-2.16c-.24-.24-.6-.72-1.08-1.44 0-.12-.06-.24-.18-.36s-.06-.18.18-.18c.12 0 .12-.18 0-.54 0-.36-.06-.6-.18-.72h-.9c-.24-.24-.36-.72-.36-1.44-.24-.72-.6-1.02-1.08-.9l-.18-.18c-.12-.12-.12-.18 0-.18 0-.6-.24-.96-.72-1.08-.12 0-.24-.06-.36-.18s-.3-.24-.54-.36c0-.36-.12-.66-.36-.9.24-.36.42-.9.54-1.62a5.9 5.9 0 00-.9-.72l-.72.72h-.18v-.36c0-.48-.06-.78-.18-.9-.72-.24-1.32-.6-1.8-1.08-.36-.6-.84-1.08-1.44-1.44.36 0 .6-.24.72-.72v-.72c.12-.36.06-.6-.18-.72-.12-.24-.24-.36-.36-.36s-.24-.06-.36-.18c-.36-.6-.72-1.14-1.08-1.62-.24-.6-.54-1.02-.9-1.26-.36-.48-.66-.9-.9-1.26-.12-.36-.42-.66-.9-.9-.36-.24-.66-.54-.9-.9-.24-.48-.54-.84-.9-1.08l-1.62-1.44c-.24-.24-.48-.12-.72.36h-.18v.18c-.12-.12-.24-.3-.36-.54-.12-.24-.24-.42-.36-.54l-2.16-2.88c-.12 0-.18-.06-.18-.18 0-.24.06-.42.18-.54.12-.36 0-.66-.36-.9-.36-.36-.66-.6-.9-.72h-.18v.18l.18.72a2.82 2.82 0 00-.72-.54c-.24-.24-.36-.54-.36-.9l-.18-.18v-.36c-.48-.24-.9-.54-1.26-.9l-.72-1.08h-.18c0-.12-.06-.18-.18-.18-.36-.12-.72-.36-1.08-.72-.24-.36-.48-.6-.72-.72l-1.08-1.26c-.36-2.88-.78-4.44-1.26-4.68-.36-.36-.78-.3-1.26.18-.36.48-.78.48-1.26 0-.12-.12-.24-.36-.36-.72-.48-.6-1.02-.66-1.62-.18-.12.48-.36.9-.72 1.26l1.08.9c-.12.84-.3 1.8-.54 2.88-.12.96.06 1.92.54 2.88v1.26c-.48 0-.72.12-.72.36 0 .6-.06 1.2-.18 1.8 0 .48-.06.96-.18 1.44-.12.72-.18 1.2-.18 1.44 0 .12.24.18.72.18-.24.48-.36.84-.36 1.08v.36c.12.12.18.3.18.54 0 .24-.06.54-.18.9v1.08c.12.36.18.78.18 1.26l.36 1.08c.12-.24.18-.48.18-.72 0-.36.06-.72.18-1.08.48.24.72.66.72 1.26-.12.36-.06.96.18 1.8 0 .72-.06 1.2-.18 1.44s-.54.48-1.26.72c0-.48-.06-.78-.18-.9 0 .48-.12.9-.36 1.26-.12.24-.18.54-.18.9 0 .48-.12.84-.36 1.08a5.9 5.9 0 01-.72-.9c-.24.24-.24.6 0 1.08.72 1.2.9 2.52.54 3.96l-.18.18v.18l-.36.36c-.12.12-.24.3-.36.54-.12.12-.18.3-.18.54 0 .12-.06.24-.18.36l.36 1.08c.24-.36.36-.78.36-1.26.12-.48.42-.72.9-.72.24.48.24.84 0 1.08l-.36.72c-.36.6-.36.96 0 1.08.12.12.18.36.18.72-.24 0-.6.12-1.08.36.12.12.18.24.18.36l.36.36v.18c-.12-.12-.3-.24-.54-.36-.24-.12-.54-.24-.9-.36v2.16c-.12.24-.24.54-.36.9 0 .24-.12.42-.36.54-.96.72-1.32 1.62-1.08 2.7l.9-.54c.12.48 0 .9-.36 1.26s-.24.66.36.9l-.54 1.44c0 .24-.12.6-.36 1.08-.24.84-.18 1.56.18 2.16.24.84.24 1.38 0 1.62-.24.72-.3 1.44-.18 2.16v1.26c0 .48-.24.72-.72.72-.36 0-.54.12-.54.36l-.54 2.34c.36.36.66.6.9.72-.24.24-.36.48-.36.72h-.36c0-.12-.06-.18-.18-.18s-.18.06-.18.18c-.24.6-.36 1.2-.36 1.8.12.6.18 1.26.18 1.98 0 .24-.06.54-.18.9-.12.24-.3.54-.54.9 0 .12-.06.18-.18.18v.18c-.12 0-.18-.06-.18-.18-.12-.12-.3-.42-.54-.9 0 .12-.06.3-.18.54-.12.12-.18.24-.18.36-.12.24-.18.6-.18 1.08.12.24.48.36 1.08.36.24.12.42.3.54.54l.36.72-.54 3.6c-.24-.12-.48-.3-.72-.54-.36.24-.42.72-.18 1.44.12.36.18.72.18 1.08.12.36.06.78-.18 1.26-.12.24-.18.48-.18.72.36.48.42 1.02.18 1.62-.12.48-.12.96 0 1.44l.18.18c.12.6.18 1.2.18 1.8.12.6.06 1.26-.18 1.98H20.7c-.12-.12-.3-.18-.54-.18-.36 0-.54-.18-.54-.54-.12-.48-.18-1.08-.18-1.8-.12-.24-.18-.54-.18-.9s-.06-.66-.18-.9c0-.12-.12-.18-.36-.18s-.36.12-.36.36c0 .72-.18 1.26-.54 1.62-.6.24-.66.6-.18 1.08v.18c.12.12.18.24.18.36v3.96c0 .12-.06.24-.18.36v.54c-.24-.24-.42-.36-.54-.36-.72-.72-1.26-1.14-1.62-1.26h-.18l-.18.18c-.36.96-.84 1.02-1.44.18-.84-.48-1.38-1.14-1.62-1.98-.24-.84-.42-1.8-.54-2.88-.12-1.08-.18-2.1-.18-3.06V164c-.24-.72-.36-1.38-.36-1.98.12-.48.06-.96-.18-1.44-.12-.48 0-.96.36-1.44.12 0 .18-.24.18-.72 0-.6.12-1.14.36-1.62.36-.6.66-1.14.9-1.62.24-.48.42-.9.54-1.26.12-.36.12-.78 0-1.26s0-.84.36-1.08c.12-.12.3-.6.54-1.44.24-.48.36-1.02.36-1.62 0-.6.06-1.2.18-1.8.12-.96.24-1.86.36-2.7l.36-2.88.72-3.24c.36-1.08.6-2.22.72-3.42.24-1.92.54-3.78.9-5.58.36-1.92.6-3.78.72-5.58.24-1.68.48-3.42.72-5.22.24-1.92.48-3.72.72-5.4.24-1.32.36-2.58.36-3.78.12-1.2.18-2.4.18-3.6.12-1.32.18-2.64.18-3.96 0-1.32.06-2.64.18-3.96v-5.58l.36-5.76v-5.94c0-.24-.06-.54-.18-.9v-3.06c.12-.6.12-1.14 0-1.62-.24-.84-.42-1.68-.54-2.52 0-.96-.3-1.8-.9-2.52-.36-.6-.72-1.26-1.08-1.98-.24-.84-.48-1.56-.72-2.16-.12 4.2-.3 6.54-.54 7.02-.24.36-.48.3-.72-.18-.24-.6-.48-1.26-.72-1.98l-.36-1.08c-.12-.48-.3-.96-.54-1.44-.36-1.32-.78-2.52-1.26-3.6-.36-1.2-.72-2.46-1.08-3.78-.12-.84-.24-1.62-.36-2.34-.12-.84-.3-1.68-.54-2.52-.12-.24-.18-.48-.18-.72s-.06-.48-.18-.72l-.54-2.16c-.36-.72-.24-1.14.36-1.26 1.08-.36 1.26-1.14.54-2.34a2.82 2.82 0 01-.54-.72c-.12-.24-.3-.48-.54-.72.24-.84.42-1.26.54-1.26.24-.12.6-.06 1.08.18l1.08.36c.48.12.84.3 1.08.54 0 .12.18.18.54.18.24-.12.6-.18 1.08-.18.36 0 .66-.06.9-.18h.36c.12-.12.24-.18.36-.18h1.26c.48 0 .9-.12 1.26-.36.36-.36.72-.42 1.08-.18.24 0 .48-.12.72-.36.24-.6.6-.9 1.08-.9a4 4 0 001.26-.54c.12-.12.3-.12.54 0 .24.12.48.18.72.18.36.12.72.12 1.08 0 .36-.24.72-.36 1.08-.36.48-.12.96 0 1.44.36l.72.36c.36.12.6.24.72.36s.36.18.72.18c0-.12-.06-.24-.18-.36v-.36c.48 0 .9-.06 1.26-.18 0 .84.3 1.26.9 1.26v.18l1.26 1.26c.36.36.72.78 1.08 1.26.48.6.6 1.44.36 2.52-.36.48-.6 1.02-.72 1.62v3.06c.12.48.24 1.02.36 1.62 0 .48.24.96.72 1.44l1.08 2.16c.48.6.96 1.38 1.44 2.34.24.24.36.54.36.9l.36.72c.24.72.54 1.26.9 1.62.24.48.54.96.9 1.44.48.36.84.78 1.08 1.26l4.5 5.58 2.52 3.6c.96 1.2 1.86 2.4 2.7 3.6.24.24.48.54.72.9.36.36.66.72.9 1.08l4.14 5.94c.72.84 1.38 1.74 1.98 2.7.72.96 1.44 1.86 2.16 2.7l.72 1.08c.24.36.42.66.54.9.48.48.84.9 1.08 1.26.6.84 1.14 1.62 1.62 2.34l1.8 2.16 2.16 2.52 2.16 2.52c.24.48.54.96.9 1.44.36.36.66.78.9 1.26l3.06 4.32c.48.48.96 1.08 1.44 1.8.36.48.72 1.08 1.08 1.8.36.6.78 1.2 1.26 1.8.6 1.08 1.26 2.04 1.98 2.88.36.6.78.54 1.26-.18 0 .36-.06.78-.18 1.26 0 .36.06.66.18.9.12.12.24.3.36.54.24.24.42.48.54.72.12-.12.18-.3.18-.54 0-.6.12-1.14.36-1.62l.72-1.44c.24-.36.24-.66 0-.9-.36-.48-.36-.9 0-1.26.24-.24.42-.66.54-1.26.12-.72.06-1.32-.18-1.8-.24-.36-.3-.66-.18-.9s.24-.42.36-.54c.24-.48.3-.78.18-.9v-.18c.24-.48.3-.96.18-1.44 0-.6-.06-1.14-.18-1.62 0-.12.06-.18.18-.18.12-.12.18-.24.18-.36v-.72c0-.12-.18-.18-.54-.18l-.72.36c-.12-.48 0-.84.36-1.08h.18v-.18c.12-.84.24-1.62.36-2.34.12-.72.18-1.38.18-1.98 0-.36-.06-.66-.18-.9-.12-.36-.3-.78-.54-1.26.24-.24.48-.54.72-.9s.42-.72.54-1.08v-.9c.24-.12.42-.24.54-.36l.36-.36c-.36-.12-.6-.36-.72-.72.24-.12.36-.12.36 0 .12 0 .24-.06.36-.18.48 0 .72-.12.72-.36 0-.48-.12-.84-.36-1.08-.12-.24-.36-.36-.72-.36-.6-.36-.78-.78-.54-1.26v-.9h-.18v-.18l-.54 1.8c-.12.12-.18.3-.18.54 0 .12-.12.12-.36 0-.12 0-.36.18-.72.54.12-.36.3-1.02.54-1.98v-3.06c0-.6-.06-1.14-.18-1.62 0-.6.06-1.08.18-1.44l.36-.36c.24.24.36.42.36.54.12.84.12 1.68 0 2.52 0 .72.18 1.5.54 2.34l.54-.54c.24-.6.36-1.2.36-1.8 0-.72-.18-1.38-.54-1.98-.36-.36-.54-.9-.54-1.62.12-.24.12-.48 0-.72v-.54c-.24-.36-.54-.66-.9-.9-.12 0-.18.06-.18.18h-.18c.12-.24.18-.48.18-.72 0-.36.06-.66.18-.9v-.72c.12-.24.06-.42-.18-.54V83c-.12-1.32-.24-2.52-.36-3.6l-.36-3.6v-4.32c.48-.12.6-.48.36-1.08-.12-.24-.18-.6-.18-1.08v-1.08c0-.36-.06-.78-.18-1.26 0-.6.12-1.02.36-1.26.36-.6.42-1.08.18-1.44-.12-.96-.42-2.22-.9-3.78 0-.6-.3-.78-.9-.54-.12 0-.24-.06-.36-.18-.12-.24-.3-.42-.54-.54l-.72-1.44c-.24-.6-.6-1.02-1.08-1.26-.36-.36-.66-.72-.9-1.08a4 4 0 00-.54-1.26l.18-.18c.24.12.42.24.54.36.24.12.36-.12.36-.72h.18c.24-.12.42-.18.54-.18.24-.12.48-.18.72-.18.36 0 .66-.06.9-.18.6 0 1.14-.12 1.62-.36.48-.36 1.02-.6 1.62-.72.24-.12.54-.3.9-.54.48-.24.9-.42 1.26-.54.6-.12 1.02-.36 1.26-.72.36-.48.78-.9 1.26-1.26.36-.24.66-.42.9-.54.36-.24.66-.42.9-.54.24-.12.54-.18.9-.18s.72-.06 1.08-.18h.36c.12-.12.24-.18.36-.18.36-.36.9-.78 1.62-1.26.48-.48.78-.66.9-.54.48.24.96.24 1.44 0 .6-.24 1.14-.3 1.62-.18.12 0 .18.06.18.18h.36c.12.12.24.18.36.18.24-.12.42-.12.54 0 .24.12.54.24.9.36.36 0 .66.06.9.18l.36.18c.12-.12.24-.42.36-.9.12.84.3 1.44.54 1.8.12.12.18.24.18.36s.06.24.18.36c.48.24.54.78.18 1.62a5.9 5.9 0 00-.72.9c-.12.24-.3.42-.54.54-.12.24-.18.48-.18.72-.24.24-.36.48-.36.72l-.18.18c-.12.36-.18.78-.18 1.26 0 .36-.06.72-.18 1.08 0 .12-.06.3-.18.54-.12.24-.18.54-.18.9v.54c.12.12.12.3 0 .54-.12.6-.24 1.26-.36 1.98-.12.6-.3 1.26-.54 1.98 0 .24-.12.48-.36.72-.24.12-.42.24-.54.36-.36.12-.54.48-.54 1.08v1.62c0 .6-.06 1.2-.18 1.8-.12.48-.18.96-.18 1.44s-.06 1.02-.18 1.62v1.08c.12.24.12.6 0 1.08-.12.48-.12 1.02 0 1.62.12.6.06 1.2-.18 1.8-.12.84-.12 1.68 0 2.52.24.72.24 1.5 0 2.34l-.72 2.52c0 .36.12.54.36.54l.9.36c-.12.36-.3.72-.54 1.08-.12.36-.24.84-.36 1.44-.24.72.12.96 1.08.72v.9c-1.08-.72-1.5-.42-1.26.9.12.12.3.18.54.18.24-.12.3.06.18.54-.48-.12-.84.12-1.08.72-.36.84-.84.96-1.44.36-.48-.24-.78-.18-.9.18l-.36.36c-.24.24-.36.48-.36.72 0 .36.12.66.36.9.24-.12.36-.24.36-.36.12-.24.24-.42.36-.54l.18-.18.36-.36v1.62c.12-.12.36-.18.72-.18v.72c.12.48.54.72 1.26.72.12 0 .3-.3.54-.9v-1.44h.18v.36c.12 0 .12.12 0 .36-.12.48-.18 1.02-.18 1.62 0 .48-.12.96-.36 1.44-.12.36-.18.72-.18 1.08v1.26h-.36c-.12-.12-.3-.18-.54-.18-.12.24-.18.54-.18.9v.9c-.48.12-.78.3-.9.54 0 .12.06.6.18 1.44l.54-.36c.12 0 .24.06.36.18h.54c-.48.24-.78.42-.9.54.12.48.06.84-.18 1.08 0 .24-.06.42-.18.54l-.54 1.62-.36 1.08c-.12.36-.12.66 0 .9.24.84.06 1.68-.54 2.52-.24.36 0 .84.72 1.44l-.54.72c-.12.36-.24.78-.36 1.26-.12.36-.3.72-.54 1.08-.12.24-.24.42-.36.54-.12.12-.12.3 0 .54 0 .72.06 1.26.18 1.62.24.48.24.9 0 1.26-.12.12-.18.3-.18.54.12.12.12.3 0 .54 0 .24-.12.48-.36.72 0 .12-.06.18-.18.18.12.48.06.9-.18 1.26-.12.24-.3.54-.54.9 0 .24.06.42.18.54.24.48.54.96.9 1.44-.48.36-.72.78-.72 1.26.12.48.18.96.18 1.44.12.48.06.96-.18 1.44-.12.36-.3.72-.54 1.08-.12.36.06.72.54 1.08.12.12.12.3 0 .54v.72c-.24-.12-.48-.18-.72-.18-.36 0-.54.06-.54.18 0 .6-.3.96-.9 1.08.6.96 1.26 1.32 1.98 1.08v1.08l-.54 3.24v.72c0 .24.06.48.18.72.36.48.72 1.02 1.08 1.62.36.48.66 1.02.9 1.62.24.48.48 1.02.72 1.62.36.6.72 1.14 1.08 1.62.12.24.24.54.36.9.24.24.42.54.54.9.6.48 1.08.96 1.44 1.44.48.48.78.9.9 1.26.24.48.42.9.54 1.26.12.36.18.66.18.9.24.24.36.6.36 1.08.24.48.36.9.36 1.26.12.24.24.54.36.9zm-11.34-34.38h.18c.6-.36.84-.96.72-1.8v-.9c.48-.36.48-.96 0-1.8-.24-.36-.48-.36-.72 0 0 .12-.06.24-.18.36s-.24.3-.36.54h-.18l-.18-.18c.12-.12.12-.24 0-.36 0-.12.06-.24.18-.36.36-.48.54-.96.54-1.44.12-.6.18-1.14.18-1.62v-.9c.12-.36.36-.48.72-.36h.18l.36-1.44c.12-.6.24-1.14.36-1.62 0-.6-.06-1.02-.18-1.26s-.18-.48-.18-.72c0-.36-.12-.6-.36-.72-.12-.24-.48-.06-1.08.54l-.18.36c.12-.48.18-.9.18-1.26l.36-1.08h-.18c-.36.12-.78.42-1.26.9-.12 0-.18-.06-.18-.18v-1.26l-.18-.72c-.24 0-.48.12-.72.36l-.9.9c-.36.36-.66.72-.9 1.08-.24.36-.24.78 0 1.26.24.36.6.54 1.08.54.36 0 .42.18.18.54v.54l-.36 2.16c0 .6-.06 1.26-.18 1.98l-.54 1.08c-.24.48-.36.78-.36.9-.48.24-.78.36-.9.36v.9c0 .24.06.48.18.72.12-.24.18-.42.18-.54.12-.24.24-.42.36-.54h.18c-.12.24-.18.54-.18.9.12.36.06.66-.18.9-.24.6-.42 1.2-.54 1.8v1.8c0 .96-.18 1.8-.54 2.52 0 .12-.06.3-.18.54-.12.12-.18.3-.18.54-.12.36-.18.72-.18 1.08.12.36.18.66.18.9v.18c.12 0 .18.06.18.18.12.12.24.3.36.54.12.12.18.3.18.54.12.24.18.48.18.72.12.24.3.42.54.54.24.24.42.48.54.72.24.72.48 1.2.72 1.44 0 .24.18.54.54.9.12-.48.18-.84.18-1.08 0-.36.06-.66.18-.9.12.12.18.3.18.54v2.16c0 .12.06.3.18.54.12.12.18.3.18.54.48-.36 1.08-.18 1.8.54.36-1.2.24-2.22-.36-3.06-.12-.12-.18-.36-.18-.72h.18v.18h.54c0-.48-.06-.96-.18-1.44 0-.6.06-1.14.18-1.62l.36-1.8c.12-.6.24-1.14.36-1.62.24-.24.48-.3.72-.18.36.12.54-.06.54-.54 0-.72-.3-1.08-.9-1.08-.12.12-.18.24-.18.36s-.06.3-.18.54c0-.24-.06-.42-.18-.54-.12-.12-.12-.24 0-.36 0-1.08-.24-1.8-.72-2.16zm2.52-30.6c-.12 0-.3.12-.54.36-.12.12-.18.3-.18.54 0 .24-.06.48-.18.72-.12.12-.18.3-.18.54 0 .24-.06.48-.18.72 0 .24-.06.48-.18.72v.54l-.36 1.44c-.12.36-.06.84.18 1.44 0-.12.12-.18.36-.18v1.08c.12.24.12.48 0 .72-.24.48-.36 1.08-.36 1.8.12.12.12.3 0 .54v.36c-.48.84-.66 1.8-.54 2.88.36-.36.66-.78.9-1.26 0-.72.18-1.38.54-1.98.36-.6.48-1.2.36-1.8v-3.96c.12-.36.18-.72.18-1.08 0-.36.06-.72.18-1.08.12-.48.18-.96.18-1.44.12-.6.06-1.14-.18-1.62zm-7.56-14.94c-.24.24-.36.42-.36.54 0 .6-.06 1.26-.18 1.98v2.52c0 .6.06.96.18 1.08l.72.36v-.18c.12-.12.18-.24.18-.36.12-.6.18-1.14.18-1.62 0-.6.06-1.14.18-1.62 0-.36-.06-.54-.18-.54-.36-.12-.54-.3-.54-.54 0-.36-.06-.6-.18-.72v-.9zM25.38 93.44c0 .24-.06.36-.18.36 0 .12-.06.3-.18.54v2.88c0 .24.06.42.18.54.6.48.96.3 1.08-.54.12 0 .3-.12.54-.36.24-.12.36-.36.36-.72.12-.48.12-.78 0-.9l-1.8-1.8zm65.34 4.68c-.12.12-.3.18-.54.18H90c-.12.48-.18 1.02-.18 1.62 0 .6-.12 1.08-.36 1.44-.12.12-.18.24-.18.36.12.12.18.3.18.54l.54-.36c0-.24.06-.42.18-.54.12-.12.18-.24.18-.36.24-.48.42-.9.54-1.26.12-.48.06-1.02-.18-1.62zm7.2-2.52c-.24.84-.06 1.44.54 1.8.48.36.72.3.72-.18.12-.48.3-.72.54-.72-.12-.84-.36-1.14-.72-.9-.36.12-.72.12-1.08 0zm-9.36-10.08c-.24.72-.36 1.5-.36 2.34 0 .72.18 1.2.54 1.44l.54-3.6c-.36 0-.6-.06-.72-.18zm6.66 2.52h.18c0-.36-.12-.78-.36-1.26-.12.12-.3.24-.54.36-.12.12-.18.24-.18.36 0 .48.06.96.18 1.44l.36 1.08h.36l.18-.18c0-.84-.06-1.44-.18-1.8zm2.16-13.68c.36-.96.42-1.74.18-2.34-.12-.24-.24-.36-.36-.36s-.3-.06-.54-.18c0 .24-.06.48-.18.72v.36l.36.72c.24.24.42.6.54 1.08zm-70.02 11.7v2.52c.84-.48 1.26-.78 1.26-.9 0-.24-.42-.78-1.26-1.62zm71.1-4.86c-.24.12-.42.54-.54 1.26 0 .72.06 1.32.18 1.8.96-.96 1.08-1.98.36-3.06zm-7.38 15.12c0-.36-.18-.66-.54-.9-.24-.24-.48-.3-.72-.18-.12.12-.24.3-.36.54l-.36.72c.24.24.36.3.36.18.6-.36 1.14-.48 1.62-.36zm-35.64 16.2c-.12.48 0 .84.36 1.08.36.24.72.36 1.08.36 0-.6-.18-.96-.54-1.08-.36-.12-.66-.24-.9-.36zm9.9 14.4l.36.36c.12 0 .24.12.36.36 0 .12.12.18.36.18v-.18c.12-.12.18-.24.18-.36-.12-.24-.3-.42-.54-.54-.24-.12-.48-.06-.72.18zm28.8-4.5c-.12-.24-.3-.36-.54-.36l-.36-.36c-.12.12-.18.3-.18.54 0 .24.12.48.36.72l.18-.18c.24-.12.42-.24.54-.36zm2.52-10.8c-.36.36-.48.9-.36 1.62.36-.24.48-.48.36-.72v-.9zM20.88 169.4c0-.84-.24-1.26-.72-1.26 0 .6.24 1.02.72 1.26zM86.4 69.14l.54 1.62c.24-.6.06-1.14-.54-1.62zM23.04 125.3c.12-.48.18-.78.18-.9l.18-.18-.54-.54-.36.36c.24.24.42.66.54 1.26zm71.64-6.3c.24.12.42.18.54.18.24 0 .42.06.54.18v-.18h.18l-.36-.36c0-.24-.06-.36-.18-.36-.12-.12-.24-.06-.36.18 0 .12-.12.24-.36.36zm-67.5 24.12c-.24.24-.48.36-.72.36 0-.24-.06-.48-.18-.72-.12-.36-.12-.72 0-1.08.24-.36.42-.66.54-.9.24-.36.42-.6.54-.72-.24.72-.06 1.14.54 1.26l-.72 1.8zm3.42-23.22c.6.6.78 1.38.54 2.34s-.66 1.56-1.26 1.8c.12-.72.24-1.38.36-1.98l.36-2.16zm-1.44 10.08c.48-.96.78-1.62.9-1.98h.18v1.26c-.12.72-.3 1.26-.54 1.62 0-.12-.06-.24-.18-.36s-.24-.3-.36-.54zm1.26-32.76c.24-.24.48-.6.72-1.08.12-.36.3-.78.54-1.26l.54.54c.12.12.18.36.18.72h-.36c-.36.36-.9.72-1.62 1.08zm-2.52 31.86c.24.84.3 1.38.18 1.62 0 .48-.18 1.08-.54 1.8 0 .12-.12.18-.36.18v-.36c0-.24.06-.48.18-.72.12-.36.24-.6.36-.72v-1.62h.18v-.18zm25.92-12.96c.48.48.6 1.08.36 1.8-.6-.48-.72-1.08-.36-1.8zm36.72 3.6l-.36.72c-.24.72 0 1.32.72 1.8.24.12.6.42 1.08.9l-.72.72c-.24.12-.24.48 0 1.08-.24-.12-.54-.18-.9-.18-.24.72-.36 1.32-.36 1.8h-.18v-1.62c0-.6.06-1.26.18-1.98v-1.62c-.12-.96-.18-1.98-.18-3.06v-3.42c0-.84.12-1.86.36-3.06 0-.24.18-.36.54-.36.12.36.18.84.18 1.44 0 .96-.06 1.68-.18 2.16v2.16c-.12.24-.18.48-.18.72 0 .12-.06.3-.18.54-.36.72-.3 1.14.18 1.26zm74.02 94.22c.72-.24 1.14-.42 1.26-.54.12-.24.18-.6.18-1.08-.6-.36-.6-.66 0-.9.24-.72.42-1.44.54-2.16.12-.72.24-1.5.36-2.34.12-.48.12-.96 0-1.44 0-.6.06-1.14.18-1.62 0-.84.06-1.68.18-2.52.24-.84.36-1.56.36-2.16.12-.6.24-1.08.36-1.44.24-.36.36-.78.36-1.26.12-1.08.12-2.22 0-3.42v-5.4c0-.6.06-1.14.18-1.62v-1.08c.12-.24.18-.42.18-.54.48-.84.78-1.8.9-2.88v-.72c-.12-.6-.18-1.14-.18-1.62 0-.6.06-1.14.18-1.62 0-.12-.06-.18-.18-.18-.48-.36-.78-.84-.9-1.44v-5.04c0-.36.06-.6.18-.72.12-.24.24-.54.36-.9s-.06-.72-.54-1.08v-.18c.24-.6.24-1.14 0-1.62-.12-.48-.24-.9-.36-1.26-.12-.48-.18-.96-.18-1.44 0-.6-.12-1.14-.36-1.62-.24-.48-.36-.84-.36-1.08.12-.36.06-.72-.18-1.08 0-.48-.06-.78-.18-.9 0-1.08-.24-1.14-.72-.18v-2.7c0-.96-.36-1.8-1.08-2.52-.12-.12-.18-.3-.18-.54-.12-1.08-.18-2.1-.18-3.06v-3.24c.12-.84-.06-1.26-.54-1.26-.12-.72-.18-1.44-.18-2.16 0-.72-.06-1.44-.18-2.16l-.36-2.16c0-.72-.06-1.32-.18-1.8v-.72c.12-.36.18-.6.18-.72 0-.24-.06-.48-.18-.72v-.54l-.18-.9-.36-1.8c0-.72-.12-1.32-.36-1.8 0-.72-.18-1.08-.54-1.08l-2.16-1.08c-.6-.48-1.32-.96-2.16-1.44l-1.08-.72c-.24-.48-.54-.96-.9-1.44-.36-.6-.84-1.08-1.44-1.44-.12 0-.3-.12-.54-.36-.12-.12-.18-.42-.18-.9 0-.36-.3-.84-.9-1.44-.12 0-.18-.12-.18-.36h.18c.12-.12.24-.18.36-.18.24 0 .42.06.54.18h3.78c.36-.24.66-.42.9-.54.36-.24.66-.42.9-.54.36-.24.48-.48.36-.72v-.54c-.12-.6-.24-1.08-.36-1.44-.12-.36-.12-.66 0-.9.12-.96.06-1.62-.18-1.98-.24-.48-.54-.84-.9-1.08h-.18c-.12-.12-.18-.24-.18-.36h-.18c.6-.24.78-.66.54-1.26h.18c.24.12.42.18.54.18.12 0 .24.12.36.36.6.24.96.12 1.08-.36.72-.48 1.38-.9 1.98-1.26.72-.48 1.5-.78 2.34-.9l.36-.36c.24.36.78.48 1.62.36.24 0 .42.18.54.54.12.24.36.48.72.72.12 0 .18.06.18.18s.06.18.18.18c.48.36.78.48.9.36.24 0 .42-.12.54-.36.12-.24.24-.42.36-.54.12.12.18.42.18.9.12.48.36.78.72.9.24-.24.42-.48.54-.72.24-.24.48-.36.72-.36.48-.12.9-.12 1.26 0 .48 0 .96-.18 1.44-.54h.18c.12 0 .18.06.18.18.6.12 1.14.36 1.62.72.6.36 1.14.72 1.62 1.08.72.36 1.38.72 1.98 1.08.72.36 1.5.66 2.34.9h.18c.24.72.54 1.02.9.9s.78-.18 1.26-.18h1.26c.12.24.24.3.36.18l.54-.54c.24-.36.48-.54.72-.54h.9c.36.12.42.42.18.9-.36.48-.48.78-.36.9s.24.3.36.54c.12 0 .18.06.18.18-.48.12-.96.3-1.44.54-.36.24-.78.48-1.26.72v.18c.6.12 1.2.42 1.8.9.6.36 1.14.54 1.62.54.6-.12 1.14-.06 1.62.18.6.24 1.26.36 1.98.36.36.24.84.12 1.44-.36.6-.12 1.08-.06 1.44.18l1.08.36c.36.12.66.18.9.18.36 0 .66.06.9.18s.48.18.72.18c.36 0 .6.12.72.36.12 0 .3.06.54.18.24 0 .42-.06.54-.18 1.2 0 2.34.18 3.42.54 1.08.12 1.98.54 2.7 1.26.24.12.66.18 1.26.18.6.12 1.02.18 1.26.18.24-.12.54-.12.9 0 .24 0 .48.06.72.18l.72.36c.12 0 .18.06.18.18.12.12.24.12.36 0 .6-.24 1.02-.18 1.26.18.36.24.66.48.9.72.24.12.42.18.54.18.24 0 .42.06.54.18.48 0 .96.06 1.44.18h1.62c.24.12.48.18.72.18.36 0 .6.12.72.36l3.24 1.98c.36 0 .78.24 1.26.72.96.36 1.86.72 2.7 1.08.96.36 1.86.84 2.7 1.44.96.48 1.8 1.08 2.52 1.8s1.5 1.44 2.34 2.16c.6.48 1.2 1.02 1.8 1.62.72.6 1.32 1.2 1.8 1.8.6.84 1.14 1.68 1.62 2.52l1.44 2.16c.48.48.9 1.08 1.26 1.8s.72 1.5 1.08 2.34c.24.36.42.84.54 1.44.24.48.48 1.02.72 1.62.24.48.42.96.54 1.44.24.48.42 1.02.54 1.62.24.96.36 2.04.36 3.24.48 1.56.9 3.06 1.26 4.5.12.24.12.6 0 1.08v6.12c.24.36.24.84 0 1.44-.12.48-.18.9-.18 1.26-.72 0-1.2.3-1.44.9-.24.6-.48 1.26-.72 1.98-.6 1.2-1.02 2.58-1.26 4.14l-.9 1.44c-.36.96-.78 1.92-1.26 2.88-.36.84-.66 1.74-.9 2.7-.36.48-.66 1.08-.9 1.8-.12.6-.3 1.2-.54 1.8 0 .36-.06.66-.18.9 0 .24-.06.54-.18.9 0 .12-.06.24-.18.36.24.6.24 1.08 0 1.44-.12.24-.3.48-.54.72a4 4 0 01-.54 1.26c-.12.36-.12.72 0 1.08.12.24.12.54 0 .9l-.36.72c-.12.36-.3.72-.54 1.08a5.9 5.9 0 00-.72.9c-.12.36-.3.72-.54 1.08-.12.24-.3.48-.54.72-.24.72-.6 1.38-1.08 1.98l-1.08 1.44c-.24.48-.54.96-.9 1.44s-.66 1.02-.9 1.62c-.48.48-.96 1.08-1.44 1.8-.36.6-.84 1.02-1.44 1.26-.12.12-.24.3-.36.54-.12.12-.24.3-.36.54h-.18v-.36l.18-.72h-.18v-.18c-.48.36-.9.72-1.26 1.08-.24.24-.6.48-1.08.72v-.18l.36-.36c.12-.24.3-.42.54-.54.36-.36.78-.72 1.26-1.08.48-.36.84-.78 1.08-1.26l.9-.9c.24-.36.42-.9.54-1.62 0-.24.12-.42.36-.54.24-.24.42-.48.54-.72.36-.36.36-.72 0-1.08 0-.36.12-.6.36-.72.36-.12.42-.36.18-.72-.12.12-.3.24-.54.36-.12.12-.24.42-.36.9 0 .24-.18.48-.54.72-.12.12-.36.3-.72.54-.24.12-.48.36-.72.72l-.36.36c-.96.72-1.56 1.92-1.8 3.6 0 .36-.06.66-.18.9-.36.12-.72.18-1.08.18-.6.6-1.2.96-1.8 1.08-.36.36-.36.84 0 1.44-.48-.24-.84-.12-1.08.36-.24.48-.6.84-1.08 1.08-.24.12-.36.24-.36.36.24.48.18.84-.18 1.08-.24.24-.42.54-.54.9-.24.48-.48.84-.72 1.08-.12 0-.18.06-.18.18v.18c-.48.48-1.02 1.08-1.62 1.8-.6.6-1.2 1.08-1.8 1.44l-.18.18c-.24.48-.48.78-.72.9-.12.12-.3.24-.54.36-.24.12-.48.48-.72 1.08v.18h-.18c-.48.24-1.02.54-1.62.9-.6.24-1.2.6-1.8 1.08-.24.12-.48.3-.72.54 0-.36.06-.66.18-.9-.48-.24-.96.12-1.44 1.08.36 0 .6.06.72.18l-.72.72c-.12.24-.12.66 0 1.26h.9c-.12.24-.3.42-.54.54-.24.12-.42.24-.54.36-.12-.24-.24-.42-.36-.54l-.36-.36c0 .24-.06.42-.18.54v.54c0 1.32-.48 1.98-1.44 1.98-.48 0-.96.12-1.44.36-.36.12-.72.3-1.08.54-.24.12-.48.48-.72 1.08-.72.12-1.38.42-1.98.9-.6.36-1.2.78-1.8 1.26-.72.48-1.26 1.08-1.62 1.8-.24.6-.6.9-1.08.9-.6-.48-1.02-.36-1.26.36-.24.6-.72.78-1.44.54-.12-.12-.42-.06-.9.18-.36.24-.66.6-.9 1.08l-1.08.72c-.48.48-.96.9-1.44 1.26-.48.24-1.02.54-1.62.9-.36.36-.78.54-1.26.54h-.9c-1.08 0-1.62.36-1.62 1.08 0 .48.12.84.36 1.08.72.36.72.96 0 1.8H184l-.18.18c.12.6.06 1.08-.18 1.44-.24.36-.48.78-.72 1.26l-1.26-.36c0 .12-.06.24-.18.36v.72c-.12-.6-.42-.9-.9-.9-.48 0-.78-.06-.9-.18-.24 0-.48-.24-.72-.72-.12-.36-.42-.54-.9-.54-.24.12-.54.18-.9.18-.24 0-.48.12-.72.36-.96 0-1.5-.42-1.62-1.26-.12-.24-.48-.36-1.08-.36-.6.12-1.02.3-1.26.54l-.36.36v.18l-.72-.72c-.24-.24-.36-.42-.36-.54 0 .12-.06.18-.18.18v3.42c.12.24.18.48.18.72h-.18c-.48-.36-.9-.78-1.26-1.26-.24-.36-.6-.78-1.08-1.26-.12-.36-.24-.54-.36-.54-.48-.12-.66-.36-.54-.72.12-.24.18-.42.18-.54 0-.24.12-.42.36-.54.24 0 .42-.06.54-.18 0-.12-.06-.24-.18-.36v-.36c-.24.24-.48.36-.72.36h-.54c-.24 0-.36-.06-.36-.18-.12-.24-.36-.54-.72-.9-.24-.36-.6-.66-1.08-.9v-.18c0-.72-.36-1.08-1.08-1.08-.36.12-.78-.06-1.26-.54-.36-.6-.48-1.14-.36-1.62v-.18c-.36-.36-.66-.84-.9-1.44-.12-.6-.48-.96-1.08-1.08-.24-.12-.48-.36-.72-.72-.24-.48-.48-.78-.72-.9l-1.08-1.44c-.24-.48-.42-1.08-.54-1.8-.12-.6-.36-1.2-.72-1.8-.36-.6-.66-1.2-.9-1.8l-.18-.72c.24-1.08.24-1.8 0-2.16-.24-.36-.84-.78-1.8-1.26-.24-.12-.72-.54-1.44-1.26h-.18v-.36c0-.12.06-.18.18-.18h.18c.24-.12.42-.18.54-.18h.36c.12-.12.24-.12.36 0 .24.12.54.24.9.36.48.12.84.24 1.08.36l.18.36c.24-.24.54-.18.9.18.48.24.9.42 1.26.54.12.12.3.06.54-.18 0-.24-.06-.48-.18-.72v-.54h-.36c-.24-.48-.42-1.02-.54-1.62 0-.6-.36-.96-1.08-1.08 0-.36.06-.6.18-.72l.18-.18c-.6-.48-1.26-.9-1.98-1.26-.72-.48-1.32-.9-1.8-1.26v-.18c.96.24 1.86.36 2.7.36.48 0 .72-.06.72-.18.24-.12.48-.18.72-.18.24-.12.54-.06.9.18.24.12.78.18 1.62.18h.36c.24-.12.48-.12.72 0 .96 0 1.74-.42 2.34-1.26.6-.96 1.08-2.1 1.44-3.42zm33.84 4.86h.54-.54zm0 0c-.12.12-.18.3-.18.54 0 .12-.06.3-.18.54h.18l.36-.36c.24-.12.42-.36.54-.72h-.18c.48-.12.9-.36 1.26-.72.36-.48.66-.96.9-1.44-.48-.12-.9-.18-1.26-.18-.24-.12-.6-.18-1.08-.18.24-.6.48-.9.72-.9.36 0 .6.18.72.54v.18h.36c-.12 0 .06-.12.54-.36-.12 0-.24-.06-.36-.18 0-.24-.06-.36-.18-.36h-.54c.24-.24.42-.54.54-.9.24-.48.6-.48 1.08 0 .24-.72.36-1.14.36-1.26.12-.36.36-.6.72-.72.36-.24.54-.6.54-1.08h.18c.12 0 .24-.06.36-.18.36 0 .66-.12.9-.36l.36-1.44c.24-.48.66-.78 1.26-.9.12 0 .18.06.18.18h.36l.18-1.08c-.12-.6-.12-.96 0-1.08.24-.12.54-.24.9-.36.24 0 .42-.12.54-.36.24-.96.42-1.5.54-1.62.6-.48 1.02-.96 1.26-1.44.24-.6.48-1.14.72-1.62l.54-.54c.6-.96 1.08-1.74 1.44-2.34.48-.6.84-1.32 1.08-2.16.24-.84.48-1.62.72-2.34.24-.84.48-2.04.72-3.6.48-3.12 1.5-3.72 3.06-1.8h.54c1.2.96 1.8.6 1.8-1.08.48-1.32.9-2.7 1.26-4.14.36-1.56.66-3.24.9-5.04.12-.36.24-.84.36-1.44.24-.72.9-1.8 1.98-3.24 0-1.08.24-1.62.72-1.62 0-1.08.06-2.04.18-2.88.12-.84.48-1.8 1.08-2.88.36-1.08.72-2.04 1.08-2.88.36-.84.66-1.62.9-2.34 0-.24-.12-.48-.36-.72-.12-.36-.18-.66-.18-.9-.36.24-.9.42-1.62.54-.72.12-1.08.3-1.08.54-.36.84-1.08 1.32-2.16 1.44-1.08.12-1.98.18-2.7.18 0-1.08.18-2.1.54-3.06.48-.96 1.5-1.68 3.06-2.16h.18l.18-.18h.18c0 .12-.06.3-.18.54-.12.12-.24.3-.36.54-.24-.36-.24-.66 0-.9.12-.12.24-.18.36-.18l2.16-.54c-.12-.48-.18-.9-.18-1.26 0-.48-.42-.96-1.26-1.44h-.18v-.18c-.48-.24-.84-.6-1.08-1.08l-1.98.54c.24-.84.36-1.68.36-2.52.12-.84-.12-1.68-.72-2.52l-1.08.36c-.12-.24-.24-.42-.36-.54-.12-.12-.24-.3-.36-.54l-.18-.18-.54-1.08c-.12-.36-.3-.66-.54-.9-1.08-1.44-2.34-2.58-3.78-3.42-.72-.12-1.38-.3-1.98-.54-.48-.36-1.08-.6-1.8-.72-1.56-.72-3.48-1.38-5.76-1.98-1.32-.24-2.7-.48-4.14-.72l-3.96-.72h-.36c-1.56 0-2.88-.24-3.96-.72l-3.96-.54c-.12-.12-.48-.12-1.08 0-.48 0-.78.06-.9.18-.72.12-1.5.06-2.34-.18-.48 0-.84.18-1.08.54l-.36 1.44v1.26c-.12.36-.18.78-.18 1.26.36 0 .66-.06.9-.18l-.36 1.08v.9l-.18-.18c0-.12-.06-.24-.18-.36h-.18c-.24.48-.36.9-.36 1.26v1.08c-.24.96-.18 1.5.18 1.62-.24.96-.36 1.8-.36 2.52 0 .12-.06.24-.18.36 0 .12.06.3.18.54 0 .72-.06 1.2-.18 1.44v.9c.12.48.12 1.02 0 1.62-.12.6-.12 1.2 0 1.8v1.08c.12.24.24.54.36.9h.36c.12-.48.18-1.14.18-1.98v.18h.18v.36-.36c-.12-.6-.12-1.08 0-1.44l.72-1.08c.12 0 .18.06.18.18-.24.72-.48 1.2-.72 1.44 0 .24-.06.6-.18 1.08.24.24.48.42.72.54.24.12.42.3.54.54 0 .24-.06.54-.18.9-.12.24-.18.54-.18.9-.12.84-.24 1.62-.36 2.34v1.98l-.36 1.08c0 .24-.12.48-.36.72.12-.24.18-.48.18-.72s.06-.42.18-.54c0-1.08-.06-1.8-.18-2.16 0-.24-.06-.42-.18-.54v-.36c-.24.24-.36.54-.36.9v1.44c0 .48-.12.96-.36 1.44-.24.36-.36 1.02-.36 1.98l.72-.36c0-.12.06-.18.18-.18s.24.06.36.18l-.36 3.96c0 .48-.12 1.08-.36 1.8-.12.48-.24 1.02-.36 1.62v1.8c.12.36.18 1.02.18 1.98.36-.96.6-1.5.72-1.62.12-.12.36-.18.72-.18 0 .12-.06.36-.18.72s-.18.66-.18.9l-.36.54c-.24.24-.3.78-.18 1.62.12-.12.42-.18.9-.18v1.62c0 .6-.12 1.26-.36 1.98l-.54 3.42c-.12.36-.18.78-.18 1.26-.12.12-.18.24-.18.36.12.12.18.3.18.54 0 .48.06.9.18 1.26s.12.72 0 1.08c-.24.6-.36 1.2-.36 1.8 0 .6.06 1.32.18 2.16-.12.24-.18.54-.18.9-.12.36-.18.84-.18 1.44.12.48.12 1.02 0 1.62 0 .84.06 1.38.18 1.62 0 .36-.06.66-.18.9 0 .24.06.6.18 1.08v.36c.12.12.18.3.18.54v3.6c0 .36.06.84.18 1.44.12.48.06.96-.18 1.44-.12.36-.12.72 0 1.08l-.18.18v1.62c.12.12.18.3.18.54.12.84.12 1.68 0 2.52 0 .84.06 1.68.18 2.52v.54c-.24 1.2.12 1.8 1.08 1.8.6-.24.96-.48 1.08-.72.24.36.3.54.18.54-.12.36-.36.72-.72 1.08l-1.08 1.08.72.36c.36 0 .6.12.72.36 0 .12-.06.3-.18.54h-1.26c-.24 0-.42.06-.54.18v1.44c0 .72.36.9 1.08.54.6-.36.96-.84 1.08-1.44l.54-.36c.36.12.54.48.54 1.08-.48.12-.9.36-1.26.72-.24.24-.48.6-.72 1.08l-.18.36-.36.72c-.12.24-.24.54-.36.9v1.44h.54c.24 0 .48.12.72.36-.24.48-.24.78 0 .9h.72c-.12.12-.18.36-.18.72 0 .24-.06.48-.18.72h.36c.24-.12.54-.18.9-.18.6 0 .9-.36.9-1.08-.12-.36-.42-.54-.9-.54-.36-.36-.66-.78-.9-1.26h1.8c.6-.48 1.14-.72 1.62-.72.48 0 .96-.06 1.44-.18.12-.12.36-.06.72.18.48.72 1.14.78 1.98.18l.54-.9c1.32-.96 2.46-1.86 3.42-2.7.96-.96 1.92-2.04 2.88-3.24.96-.6 1.68-1.26 2.16-1.98.24-.12.42-.18.54-.18.24-.12.42-.24.54-.36-.24 0-.48-.06-.72-.18-.12-.24-.3-.42-.54-.54-.24 0-.36.24-.36.72-.12.12-.3.42-.54.9-.36.24-.66.54-.9.9-.12.24-.3.42-.54.54-.36.36-.72.66-1.08.9-.36.12-.78.3-1.26.54-.6.24-.9.06-.9-.54.48-.6.48-1.08 0-1.44-.12-.24-.12-.66 0-1.26h.36c0-.12.06-.18.18-.18.24.12.6.18 1.08.18zm-.9 12.78c.12-.12.36-.18.72-.18.36-.24.72-.54 1.08-.9.48-.48.84-.78 1.08-.9.72-.24 1.26-.6 1.62-1.08a6.09 6.09 0 011.62-1.44c.36-.48 1.2-.96 2.52-1.44.24-.24.42-.48.54-.72.12-.24.24-.42.36-.54a2.82 2.82 0 00-.72-.54h-1.08l-.54.54c-.12.24-.36.54-.72.9h-.18c-.24-.24-.48-.24-.72 0s-.54.42-.9.54l-.72.36c-.6.48-1.2 1.02-1.8 1.62-.6.6-1.32 1.08-2.16 1.44l-.18.18v.18c-.24.12-.54.42-.9.9a5.9 5.9 0 01-.72.9c-.24.24-.36.42-.36.54h.72c.6-.6 1.08-.72 1.44-.36zm-18.72-54c.12.48.18.9.18 1.26.12.36.24.66.36.9l.36 1.08c0-.12.06-.18.18-.18.12-.12.18-.24.18-.36v-.9c0-.24-.06-.42-.18-.54v-.54c-.12-.24-.18-.42-.18-.54.12-.24.12-.42 0-.54-.24-.84-.54-1.5-.9-1.98.48-.6.72-1.5.72-2.7.12-1.2.06-1.86-.18-1.98-.12.36-.3.6-.54.72-.24.12-.42.3-.54.54-.12.12-.3.24-.54.36v6.48c.48-.6.84-.96 1.08-1.08zm15.84 58.14c.72 0 1.2-.12 1.44-.36.12-.24.12-.48 0-.72 0-.36.06-.6.18-.72v-.54c-.36 0-.6.06-.72.18-.12 0-.3.06-.54.18h-.36c-.48 0-.72.3-.72.9 0 .72.24 1.08.72 1.08zm6.84-11.16c.36 0 .54-.12.54-.36v-1.26c-.12.24-.24.42-.36.54-.12 0-.18.06-.18.18 0 .36-.18.54-.54.54h-.72c-.36-.12-.54.12-.54.72 0 .36.06.66.18.9.24.12.42.12.54 0 .6 0 1.14-.18 1.62-.54-.12-.24-.24-.36-.36-.36 0-.12-.06-.24-.18-.36zm5.58 3.96c.72 0 1.08-.36 1.08-1.08l-.36-.72c-.48.48-.78.84-.9 1.08l.18.72zm-9.36-1.44v-.36c-.48 0-.78.18-.9.54-.12.36-.3.72-.54 1.08.36 0 .54-.18.54-.54.48-.12.78-.36.9-.72zm-18.54-24.3h.36c.12-.6.12-1.14 0-1.62l-.18-.72c-.12.36-.24.6-.36.72v.18c.12.24.18.72.18 1.44zm11.16 33.48h1.26c0-.36-.12-.54-.36-.54-.12-.24-.3-.24-.54 0-.12.12-.24.3-.36.54zm-29.52-6.48c0-.24-.06-.42-.18-.54 0-.12-.06-.3-.18-.54h-.18c0-.12-.06-.18-.18-.18v.18h-.18c0 .72.3 1.08.9 1.08zm22.14-62.1v1.26c.12.36.18.66.18.9.24-1.08.18-1.8-.18-2.16zm-21.6 64.98c-.48.96-.12 1.44 1.08 1.44a2.82 2.82 0 00-.72-.54c-.12-.24-.24-.54-.36-.9zm43.38-10.44v-.18c.12-.12.18-.24.18-.36 0-.24-.06-.42-.18-.54v-.36c0 .12-.06.24-.18.36v.54c0 .24.06.42.18.54zm-21.06-57.96v-.54c.12-.12.18-.24.18-.36-.36.36-.42.66-.18.9zm42.84 50.94c-.12.12-.24.36-.36.72-.12.24-.3.48-.54.72-.12.12-.54.3-1.26.54-.24 0-.36.18-.36.54 0 .48-.06.78-.18.9-.12 0-.3.12-.54.36-.12 0-.3.18-.54.54-.36.36-.6.54-.72.54-.72-.24-1.08.06-1.08.9-.24.48-.54.54-.9.18v-.36c.12-.12.18-.24.18-.36-.48-.24-.9-.54-1.26-.9H220c.36 0 .6-.06.72-.18.24-.12.48-.18.72-.18.48-.24.9-.48 1.26-.72.48-.24.84-.6 1.08-1.08.12-.12.18-.24.18-.36.48-.24.9-.54 1.26-.9l1.08-1.08.18.18zm-9.18 9.36c-.36.12-.72.42-1.08.9-.36.36-.78.48-1.26.36 0-.12-.12-.06-.36.18l-1.08.72c-.48.36-.78.24-.9-.36.24-.24.54-.48.9-.72.36-.36.78-.72 1.26-1.08.72.24 1.14 0 1.26-.72.24.12.48.3.72.54 0 .12.18.18.54.18zm-18.36 14.22c.72-.24 1.32-.48 1.8-.72v.54l-.9.54c-.6.12-1.2.36-1.8.72-.6.36-1.2.66-1.8.9h-.54c.12-.12.18-.24.18-.36s.06-.18.18-.18c.36-.24.72-.42 1.08-.54l1.08-.36c.24-.12.48-.3.72-.54zm-13.32-10.98c-.12-.24-.12-.42 0-.54.12-.24.24-.42.36-.54.12 0 .3-.06.54-.18l.36-.18c0-.12.06-.24.18-.36.36.36.54.6.54.72 0 .36-.24.66-.72.9-.36 0-.66.06-.9.18h-.36zm22.68 5.94c.12-.96.42-1.44.9-1.44.48-.12.84-.36 1.08-.72-.12.24-.18.54-.18.9 0 .24-.12.54-.36.9-.12.12-.36.18-.72.18-.24 0-.48.06-.72.18zm-14.76 7.56c.48-.24.66-.36.54-.36.12 0 .24.06.36.18h.36l-.54.36h-.36c0-.12-.12-.18-.36-.18zm8.28-3.6c0-.36.36-.48 1.08-.36l-1.08.36zm-4.68-21.06c-.36.36-.78.54-1.26.54-.12 0-.3.06-.54.18h-.9l-.18-.18c0-.48-.06-.72-.18-.72s-.24.12-.36.36c0 .12-.06.18-.18.18.24-.24.3-.54.18-.9 0-.48.06-.78.18-.9.72-.12 1.2-.06 1.44.18l.54.54.72.36.54.36zm-1.98 4.14l-.72.36c-.12 0-.06.24.18.72l-.18.18c-.12.12-.24.18-.36.18l-.54-.54c0-.36.06-.66.18-.9s.18-.42.18-.54c.48-.48.9-.3 1.26.54zm0 0c.48-.48.78-.36.9.36.12.36.24.6.36.72s.24.3.36.54c-.12.12-.36.18-.72.18l-.36-.72-.54-1.08zm24.12-54.18c.72-.6 1.26-1.14 1.62-1.62.36-.48.72-.84 1.08-1.08 1.32.24 2.1.54 2.34.9.24.24-.3 1.02-1.62 2.34h-1.26l-2.16-.54zm-27.72 55.98c.12.6.3 1.14.54 1.62-.6 0-.96-.06-1.08-.18.12-.24.18-.48.18-.72.12-.36.24-.6.36-.72zm6.66-5.76c.24.24.36.42.36.54-.12 0-.24.06-.36.18 0 .12-.06.18-.18.18h-.36c0-.24.06-.42.18-.54l.36-.36z" fill="gold"/></svg>