<svg width="100" height="65" viewBox="0 0 100 65" fill="none" xmlns="http://www.w3.org/2000/svg">
<g clip-path="url(#clip0_141485_21)">
<path d="M0 -9.64701e-05C6 -9.64701e-05 6 -9.65595e-05 8.49219 1.94131C9.27852 2.80627 10.0648 3.67123 10.875 4.5624C13.8809 7.76204 16.8424 10.8425 20.1875 13.6874C23.3275 16.3743 26.2354 19.2108 29.1282 22.1596C30.9223 23.9235 32.7702 25.5694 34.6797 27.2069C39.8894 31.7346 44.8509 36.5145 49.8203 41.3026C57.3713 48.9359 57.3713 48.9359 67.375 51.4999C72.6255 51.2713 76.8978 50.4168 81 46.9999C84.7519 42.3871 85.6476 37.3659 85.3867 31.5272C84.5399 25.9927 82.53 21.5702 78.625 17.5624C72.0341 13.6392 65.5254 13.5016 58 12.9999C58 20.5899 58 28.1799 58 35.9999C54.6617 34.3308 52.6471 32.9901 49.9375 30.5624C49.2659 29.9656 48.5943 29.3687 47.9023 28.7538C47.2746 28.175 46.6468 27.5962 46 26.9999C45.4718 26.5831 44.9436 26.1662 44.3994 25.7367C42.4232 23.2841 42.6575 21.5751 42.707 18.4569C42.7215 16.8472 42.7215 16.8472 42.7363 15.205C42.7615 14.0854 42.7866 12.9659 42.8125 11.8124C42.8328 10.1157 42.8328 10.1157 42.8535 8.38467C42.8889 5.58927 42.9383 2.79482 43 -9.64701e-05C47.5165 -0.124936 52.0321 -0.215009 56.5498 -0.274755C58.0822 -0.299694 59.6145 -0.333659 61.1465 -0.377294C70.4571 -0.635583 78.0042 -0.398218 86 4.9999C86.8869 5.55678 87.7738 6.11365 88.6875 6.6874C96.7976 14.7975 100.409 22.895 100.438 34.2499C100.423 44.0777 98.3865 50.4804 91.75 57.8749C84.4109 64.4266 76.9158 65.6493 67.3125 65.4999C65.8033 65.5231 65.8033 65.5231 64.2637 65.5468C55.0633 65.4983 50.6562 61.8711 44.125 55.6874C43.5784 55.1761 43.0317 54.6649 42.4685 54.1381C41.2808 53.0263 40.0949 51.9126 38.9106 50.7973C36.882 48.8889 34.846 46.9888 32.8086 45.0897C31.393 43.7684 29.9776 42.4467 28.5625 41.1249C27.9007 40.507 27.239 39.8892 26.5571 39.2526C25.9208 38.6562 25.2845 38.0597 24.6289 37.4452C24.0728 36.9246 23.5166 36.404 22.9436 35.8676C20.2564 33.2853 17.6352 30.6351 15 27.9999C14.67 40.2099 14.34 52.4199 14 64.9999C9.38 64.9999 4.76 64.9999 0 64.9999C0 43.5499 0 22.0999 0 -9.64701e-05Z" fill="white"/>
<path d="M5 0C9.79102 4.04106 14.4354 8.20568 19 12.5C20.3203 13.737 21.6406 14.974 22.9609 16.2109C23.6296 16.8384 24.2983 17.4658 24.9873 18.1123C30.6468 23.4204 36.3223 28.7114 42 34C42.6071 34.5659 43.2143 35.1318 43.8398 35.7148C45.5997 37.3536 47.3619 38.9897 49.125 40.625C49.6453 41.1098 50.1656 41.5947 50.7017 42.0942C57.3676 48.2633 60.966 51.4013 70.1055 51.2695C74.429 50.8669 77.6471 49.7928 81 47C84.7799 42.3528 85.5673 37.4105 85.3398 31.543C84.7977 27.4864 83.5342 23.7806 82 20C86.6613 24.0398 87.7336 27.7165 88.4375 33.75C88.2618 39.1334 86.1043 43.6674 83 48C77.5997 52.6838 72.1366 54.3519 65.0117 54.207C59.2055 53.6095 55.7452 49.9855 51.9365 45.9697C50.1206 44.1226 48.2513 42.4306 46.2852 40.7461C42.0196 37.0449 37.9087 33.1991 33.8125 29.3125C32.3207 27.9032 30.8286 26.4943 29.3359 25.0859C28.6047 24.396 27.8735 23.706 27.1201 22.9951C19.5376 15.8596 11.9031 8.78093 4 2C4.33 1.34 4.66 0.68 5 0Z" fill="white"/>
<path d="M43.0003 0C43.6603 0 44.3203 0 45.0003 0C44.9834 0.685137 44.9666 1.37027 44.9493 2.07617C44.2111 15.2421 44.2111 15.2421 48.0706 27.375C50.3074 29.2822 52.3431 30.7546 55.0003 32C55.0253 31.4297 55.0504 30.8593 55.0762 30.2717C55.1918 27.7017 55.3147 25.1321 55.4378 22.5625C55.4771 21.6647 55.5164 20.7668 55.5569 19.8418C55.5988 18.9878 55.6407 18.1338 55.6839 17.2539C55.7389 16.0678 55.7389 16.0678 55.795 14.8577C56.0003 13 56.0003 13 57.0003 12C59.4117 11.8454 61.7748 11.7683 64.1878 11.75C65.5013 11.7242 66.8149 11.6984 68.1682 11.6719C72.1988 12.017 74.5908 12.8684 78.0003 15C78.4953 15.99 78.4953 15.99 79.0003 17C78.4898 16.795 77.9793 16.5901 77.4534 16.3789C70.9532 13.9701 64.9128 13.3973 58.0003 13C58.0003 20.59 58.0003 28.18 58.0003 36C54.662 34.3309 52.6474 32.9902 49.9378 30.5625C49.2662 29.9657 48.5946 29.3688 47.9026 28.7539C47.2749 28.1751 46.6471 27.5963 46.0003 27C45.4721 26.5831 44.9439 26.1663 44.3997 25.7368C42.4235 23.2842 42.6578 21.5751 42.7073 18.457C42.717 17.3839 42.7266 16.3107 42.7366 15.2051C42.7617 14.0855 42.7869 12.966 42.8128 11.8125C42.8331 10.1158 42.8331 10.1158 42.8538 8.38477C42.8892 5.58937 42.9386 2.79492 43.0003 0Z" fill="white"/>
<path d="M18 29C18.66 29 19.32 29 20 29C20 29.66 20 30.32 20 31C20.8972 31.3713 20.8972 31.3713 21.8125 31.75C24.2865 33.1637 25.4337 34.6506 27 37C24 37 24 37 22.3945 35.7578C21.8725 35.219 21.3504 34.6802 20.8125 34.125C20.2827 33.5913 19.7529 33.0577 19.207 32.5078C18 31 18 31 18 29Z" fill="white"/>
<path d="M36 46C39.3672 47.3933 40.986 48.9789 43 52C40 52 40 52 37.8125 50.125C36 48 36 48 36 46Z" fill="white"/>
</g>
<defs>
<clipPath id="clip0_141485_21">
<rect width="100" height="65" fill="white"/>
</clipPath>
</defs>
</svg>
